<svg width="164" height="164" viewBox="0 0 164 164" fill="none" xmlns="http://www.w3.org/2000/svg">
<path d="M61.5866 50.1104C42.8096 31.8409 55.7437 0 81.9421 0C108.14 0 121.075 31.8409 102.298 50.1105L81.9421 69.9158L61.5866 50.1104Z" fill="#EEF8D3"/>
<path d="M61.7048 113.89C42.9277 132.159 55.8619 164 82.0602 164C108.259 164 121.193 132.159 102.416 113.89L82.0602 94.0842L61.7048 113.89Z" fill="#EEF8D3"/>
<path d="M50.1104 102.413C31.8409 121.19 0 108.256 0 82.0579C0 55.8596 31.8409 42.9254 50.1105 61.7024L69.9158 82.0579L50.1104 102.413Z" fill="#EEF8D3"/>
<path d="M113.89 102.295C132.159 121.072 164 108.138 164 81.9398C164 55.7414 132.159 42.8072 113.89 61.5843L94.0842 81.9398L113.89 102.295Z" fill="#EEF8D3"/>
</svg>
