<svg width="41" height="40" viewBox="0 0 41 40" fill="none" xmlns="http://www.w3.org/2000/svg">
<g clip-path="url(#clip0_10_658)">
<path d="M37.7507 11.7807L24.7402 5.82702C23.3847 5.2157 22.2816 4.92332 21.1785 4.9499C20.0888 4.92332 18.9857 5.2157 17.6169 5.82702L4.61969 11.7807C3.76916 12.1662 3.35718 12.8439 3.35718 13.5217C3.35718 14.1994 3.76916 14.864 4.61969 15.2627L10.095 17.7611L18.5074 13.8141C18.4276 13.7211 18.401 13.6147 18.401 13.5217C18.401 12.6844 19.8097 12.0465 21.2317 12.0465C22.6669 12.0465 24.0491 12.6844 24.0491 13.5217C24.0491 14.3855 22.6669 15.0367 21.2317 15.0367C20.7931 15.0367 20.3546 14.9702 19.9692 14.864L11.9423 18.6249L17.6169 21.2297C18.9857 21.8542 20.0888 22.1201 21.1785 22.1068C22.2816 22.1201 23.3847 21.8542 24.7402 21.2297L37.7507 15.2627C38.6012 14.864 39.0132 14.1994 39.0132 13.5217C39.0132 12.8439 38.6012 12.1662 37.7507 11.7807ZM11.8891 20.5918V28.6719C14.1218 30.0274 17.3113 30.8513 21.1785 30.8513C29.0194 30.8513 34.0694 27.4891 34.0694 23.5155V18.9438L25.4976 22.8643C23.9427 23.582 22.5341 23.9408 21.1785 23.9275C19.8362 23.9408 18.4143 23.582 16.8594 22.8643L11.8891 20.5918ZM8.30092 18.9438V23.5155C8.30092 24.6717 8.96539 26.1069 10.1615 27.3296V19.8077L8.30092 18.9438ZM10.1615 31.755H11.8891V28.6719C11.2246 28.2732 10.6399 27.8214 10.1615 27.3296V31.755ZM9.11158 31.8481V35.3433C9.11158 36.3932 9.78936 37.0709 10.8392 37.0709H11.198C12.2479 37.0709 12.9257 36.3932 12.9257 35.3433V31.8481C12.9257 30.7982 12.2479 30.1204 11.198 30.1204H10.8392C9.78936 30.1204 9.11158 30.7982 9.11158 31.8481Z" fill="#262626"/>
</g>
<defs>
<clipPath id="clip0_10_658">
<rect width="40" height="40" fill="white" transform="translate(0.5)"/>
</clipPath>
</defs>
</svg>
