<svg width="40" height="42" viewBox="0 0 40 42" fill="none" xmlns="http://www.w3.org/2000/svg">
<path d="M14.3093 38.8226C15.7155 38.8226 16.5861 38.0357 16.5693 36.663L16.2345 17.8627C16.2345 17.2769 16.4856 16.8416 17.0046 16.6071C19.2144 15.6361 20.1687 14.615 20.0515 11.6853L19.5827 1.40625C19.5493 0.669643 19.114 0.251116 18.4276 0.251116C17.7747 0.251116 17.3729 0.686384 17.3729 1.43973L17.4901 11.4342C17.4901 12.0201 17.1218 12.3884 16.5693 12.3884C16.0001 12.3884 15.5984 12.0368 15.5984 11.4844L15.431 1.13839C15.4142 0.418527 14.9957 0 14.3093 0C13.6229 0 13.2211 0.418527 13.2044 1.13839L13.037 11.4844C13.037 12.0368 12.6352 12.3884 12.066 12.3884C11.5135 12.3884 11.1285 12.0201 11.1285 11.4342L11.2457 1.43973C11.2457 0.686384 10.8606 0.251116 10.191 0.251116C9.50462 0.251116 9.06935 0.669643 9.03587 1.40625L8.58386 11.6853C8.44993 14.615 9.40417 15.6361 11.614 16.6071C12.133 16.8416 12.3841 17.2769 12.3841 17.8627L12.066 36.663C12.0493 38.0357 12.903 38.8226 14.3093 38.8226ZM27.4008 24.2243L27.0492 36.5793C26.9991 38.0357 27.8862 38.8226 29.2758 38.8226C30.6988 38.8226 31.5694 38.1027 31.5694 36.7634V1.25558C31.5694 0.401786 30.9834 0 30.3807 0C29.7445 0 29.3261 0.334821 28.7904 1.12165C26.095 4.90513 24.3205 11.9866 24.3205 18.683V19.5033C24.3205 20.6584 24.739 21.5123 25.5761 22.0647L26.5638 22.7344C27.1664 23.1529 27.4342 23.6217 27.4008 24.2243Z" fill="#262626"/>
</svg>
