<svg width="41" height="40" viewBox="0 0 41 40" fill="none" xmlns="http://www.w3.org/2000/svg">
<path d="M11.4041 37.3216H29.1831C32.6318 37.3216 34.3728 35.5637 34.3728 32.0816V6.68541C34.3728 3.18653 32.6485 1.42871 29.1831 1.42871H24.9309C24.3616 1.42871 23.9766 1.8305 23.9766 2.43318C23.9766 2.51688 23.9766 2.60059 23.9766 2.66755C23.9766 4.84388 22.5034 6.1497 20.2936 6.1497C18.0838 6.1497 16.6106 4.84388 16.6106 2.66755C16.6106 2.60059 16.6106 2.51688 16.6106 2.43318C16.6106 1.8305 16.2255 1.42871 15.6563 1.42871H11.4041C7.93868 1.42871 6.21436 3.18653 6.21436 6.68541V32.0816C6.21436 35.5637 7.95543 37.3216 11.4041 37.3216ZM13.9487 13.9008C13.3461 13.9008 12.9108 13.4488 12.9108 12.8461C12.9108 12.2769 13.3461 11.8249 13.9487 11.8249H26.6552C27.2412 11.8249 27.6764 12.2769 27.6764 12.8461C27.6764 13.4488 27.2412 13.9008 26.6552 13.9008H13.9487ZM13.9487 19.8439C13.3461 19.8439 12.9108 19.3919 12.9108 18.8227C12.9108 18.2367 13.3461 17.7847 13.9487 17.7847H19.9588C20.5615 17.7847 20.9968 18.2367 20.9968 18.8227C20.9968 19.3919 20.5615 19.8439 19.9588 19.8439H13.9487Z" fill="#262626"/>
</svg>
