<svg width="40" height="40" viewBox="0 0 40 40" fill="none" xmlns="http://www.w3.org/2000/svg">
<path d="M10.904 37.3214H28.6829C32.1317 37.3214 33.8727 35.5636 33.8727 32.0814V6.68529C33.8727 3.1864 32.1484 1.42859 28.6829 1.42859H24.4308C23.8615 1.42859 23.4765 1.83037 23.4765 2.43305C23.4765 2.51676 23.4765 2.60046 23.4765 2.66743C23.4765 4.84376 22.0032 6.14957 19.7935 6.14957C17.5836 6.14957 16.1104 4.84376 16.1104 2.66743C16.1104 2.60046 16.1104 2.51676 16.1104 2.43305C16.1104 1.83037 15.7254 1.42859 15.1562 1.42859H10.904C7.43856 1.42859 5.71423 3.1864 5.71423 6.68529V32.0814C5.71423 35.5636 7.4553 37.3214 10.904 37.3214ZM13.4486 13.9007C12.8459 13.9007 12.4107 13.4487 12.4107 12.846C12.4107 12.2768 12.8459 11.8248 13.4486 11.8248H26.1551C26.7411 11.8248 27.1762 12.2768 27.1762 12.846C27.1762 13.4487 26.7411 13.9007 26.1551 13.9007H13.4486ZM13.4486 19.8437C12.8459 19.8437 12.4107 19.3917 12.4107 18.8226C12.4107 18.2366 12.8459 17.7846 13.4486 17.7846H19.4586C20.0614 17.7846 20.4967 18.2366 20.4967 18.8226C20.4967 19.3917 20.0614 19.8437 19.4586 19.8437H13.4486Z" fill="#262626"/>
</svg>
