<svg width="40" height="40" viewBox="0 0 40 40" fill="none" xmlns="http://www.w3.org/2000/svg">
<path d="M3.52942 32.9412V25.5359C3.52942 23.4062 3.91821 21.1919 4.69579 18.8928C5.49694 16.5696 6.58084 14.3795 7.9475 12.3224C9.33772 10.2412 10.8929 8.48667 12.613 7.05884L18.5509 11.0156C17.1607 13.1694 15.9943 15.4201 15.0518 17.7675C14.1328 20.0908 13.6851 22.656 13.7087 25.4633V32.9412H3.52942ZM21.4491 32.9412V25.5359C21.4491 23.4062 21.8379 21.1919 22.6155 18.8928C23.4167 16.5696 24.5006 14.3795 25.8672 12.3224C27.2574 10.2412 28.8126 8.48667 30.5327 7.05884L36.4706 11.0156C35.0804 13.1694 33.914 15.4201 32.9715 17.7675C32.0525 20.0908 31.6048 22.656 31.6284 25.4633V32.9412H21.4491Z" fill="#356554"/>
</svg>
