<svg width="40" height="40" viewBox="0 0 40 40" fill="none" xmlns="http://www.w3.org/2000/svg">
<path d="M3.53249 27.225C4.7326 27.225 5.65121 26.3064 5.65121 25.136V13.9349C5.65121 12.7496 4.7326 11.8162 3.53249 11.8162C2.34719 11.8162 1.42859 12.7496 1.42859 13.9349V25.136C1.42859 26.3064 2.34719 27.225 3.53249 27.225ZM10.5702 30.4995C12.5407 30.4995 13.9187 29.1808 13.9187 27.3139V11.7717C13.9187 9.89006 12.5407 8.57141 10.5702 8.57141C8.61445 8.57141 7.23655 9.89006 7.23655 11.7717V27.3139C7.23655 29.1808 8.61445 30.4995 10.5702 30.4995ZM15.6374 22.3949H24.8382V16.6759H15.6374V22.3949ZM29.9053 30.4995C31.8759 30.4995 33.2539 29.1808 33.2539 27.3139V11.7717C33.2539 9.89006 31.8759 8.57141 29.9053 8.57141C27.9497 8.57141 26.5717 9.89006 26.5717 11.7717V27.3139C26.5717 29.1808 27.9497 30.4995 29.9053 30.4995ZM36.795 27.225C37.9803 27.225 38.9136 26.3064 38.9136 25.136V13.9349C38.9136 12.7496 37.9803 11.8162 36.795 11.8162C35.6097 11.8162 34.691 12.7496 34.691 13.9349V25.136C34.691 26.3064 35.6097 27.225 36.795 27.225Z" fill="#262626"/>
</svg>
